<svg width="32" height="32" viewBox="0 0 32 32" fill="none" xmlns="http://www.w3.org/2000/svg">
<g clip-path="url(#clip0_5_76)">
<mask id="mask0_5_76" style="mask-type:alpha" maskUnits="userSpaceOnUse" x="0" y="4" width="32" height="25">
<path fill-rule="evenodd" clip-rule="evenodd" d="M20.9319 8.23579C20.9319 10.4554 19.1325 12.2547 16.913 12.2547C14.6934 12.2547 12.8941 10.4554 12.8941 8.23579C12.8941 6.01623 14.6934 4.21692 16.913 4.21692C19.1325 4.21692 20.9319 6.01623 20.9319 8.23579ZM26.7088 21.4646C29.437 21.4646 31.6487 19.253 31.6487 16.5247C31.6487 13.7965 29.437 11.5849 26.7088 11.5849C23.9806 11.5849 21.7689 13.7965 21.7689 16.5247C21.7689 19.253 23.9806 21.4646 26.7088 21.4646ZM16.9129 20.6274C19.1325 20.6274 20.9318 18.8281 20.9318 16.6085C20.9318 14.3889 19.1325 12.5896 16.9129 12.5896C14.6934 12.5896 12.894 14.3889 12.894 16.6085C12.894 18.8281 14.6934 20.6274 16.9129 20.6274ZM16.9129 29C19.1324 29 20.9317 27.2007 20.9317 24.9811C20.9317 22.7615 19.1324 20.9622 16.9129 20.9622C14.6933 20.9622 12.894 22.7615 12.894 24.9811C12.894 27.2007 14.6933 29 16.9129 29ZM11.3868 8.15201C11.3868 9.58548 10.2248 10.7475 8.79129 10.7475C7.35782 10.7475 6.19577 9.58548 6.19577 8.15201C6.19577 6.71854 7.35782 5.55649 8.79129 5.55649C10.2248 5.55649 11.3868 6.71854 11.3868 8.15201ZM8.79126 19.9575C10.5947 19.9575 12.0566 18.4956 12.0566 16.6922C12.0566 14.8888 10.5947 13.4269 8.79126 13.4269C6.98786 13.4269 5.52592 14.8888 5.52592 16.6922C5.52592 18.4956 6.98786 19.9575 8.79126 19.9575ZM11.3869 24.8974C11.3869 26.3309 10.2248 27.493 8.79133 27.493C7.35786 27.493 6.19581 26.3309 6.19581 24.8974C6.19581 23.464 7.35786 22.3019 8.79133 22.3019C10.2248 22.3019 11.3869 23.464 11.3869 24.8974ZM2.00944 18.6179C3.11922 18.6179 4.01888 17.7183 4.01888 16.6085C4.01888 15.4987 3.11922 14.599 2.00944 14.599C0.899656 14.599 0 15.4987 0 16.6085C0 17.7183 0.899656 18.6179 2.00944 18.6179Z" fill="#010035"/>
</mask>
<g mask="url(#mask0_5_76)">
<rect width="35.3326" height="29.4718" transform="matrix(1 0 0 -1 -1.8418 31.3444)" fill="url(#paint0_linear_5_76)"/>
</g>
</g>
<defs>
<linearGradient id="paint0_linear_5_76" x1="2.26062" y1="19.0271" x2="29.1373" y2="6.02857" gradientUnits="userSpaceOnUse">
<stop offset="0.224" stop-color="#69FFFF"/>
<stop offset="1" stop-color="#0051FF"/>
</linearGradient>
<clipPath id="clip0_5_76">
<rect width="32" height="32" fill="white"/>
</clipPath>
</defs>
</svg>
